v 0.609475 -0.203593 -1.521659
v 0.541155 -0.110617 -2.046698
v 0.609475 0.370669 -1.297424
v 0.578997 0.683620 -0.796084
v 0.796227 0.193655 -0.898175
v 0.844662 0.334722 -0.066521
v 0.582503 0.838015 -0.020722
v 0.582503 0.816138 0.712224
v 0.844662 0.350390 0.796387
v 0.673845 0.318445 1.160695
v 0.781329 -0.151903 0.181716
v 0.803907 -0.047270 1.136199
v 0.609475 -0.365200 0.455174
v 0.609475 -0.348792 1.220856
v 0.210787 0.856697 0.838103
v 0.336924 0.371136 1.018497
v 0.091695 -0.337854 1.095065
v 0.534656 0.329383 1.822463
v 0.234896 0.296568 1.855278
v 0.231663 0.001234 2.298280
v 0.641297 -0.069865 1.477906
v -0.336924 0.371136 1.018497
v -0.609475 -0.203593 -1.521659
v -0.541155 -0.110617 -2.046698
v -0.578997 0.683620 -0.796084
v -0.609475 0.370669 -1.297424
v -0.796227 0.193655 -0.898175
v -0.844662 0.334722 -0.066521
v -0.582503 0.838015 -0.020722
v -0.582503 0.816138 0.712224
v -0.844662 0.350390 0.796387
v -0.673845 0.318445 1.160695
v -0.781329 -0.151903 0.181716
v -0.803907 -0.047270 1.136199
v -0.609475 -0.365200 0.455174
v -0.609475 -0.348792 1.220856
v -0.210787 0.856697 0.838103
v -0.091695 -0.337854 1.095065
v -0.534656 0.329383 1.822463
v -0.234896 0.296568 1.855278
v -0.231663 0.001234 2.298280
v -0.641297 -0.069865 1.477906
v -0.194168 0.844868 -0.130145
v 0.194168 0.844868 -0.130145
v -0.203158 0.413678 -1.414684
v -0.194168 0.694704 -0.867027
v 0.203158 0.413678 -1.414684
v 0.194168 0.694704 -0.867027

vn 0.9918 -0.1279 0.0023
vn 0.9937 -0.1115 -0.0113
vn -0.9918 -0.1279 0.0023
vn -0.9937 -0.1115 -0.0113
vn 0.9888 -0.1455 -0.0329
vn -0.9888 -0.1455 -0.0329
vn 0.1038 0.9945 -0.0139
vn -0.1038 0.9945 -0.0139
vn -0.0092 0.9995 0.0298
vn 0.0092 0.9995 0.0298
vn 0.0000 0.9999 -0.0122
vn 0.0983 0.9863 0.1326
vn -0.0983 0.9863 0.1326
vn -0.1484 0.9888 0.0149
vn 0.1484 0.9888 0.0149
vn -0.1003 0.9920 0.0762
vn 0.1003 0.9920 0.0762
vn 0.9754 0.0847 0.2037
vn -0.9754 0.0847 0.2037
vn 0.0304 0.8318 0.5543
vn -0.0304 0.8318 0.5543
vn -0.8603 0.2773 0.4277
vn 0.8603 0.2773 0.4277
vn -0.8783 -0.1555 0.4521
vn 0.8783 -0.1555 0.4521
vn -0.8973 0.4237 -0.1241
vn 0.8973 0.4237 -0.1241
vn -0.0722 0.9781 -0.1951
vn -0.8791 0.4667 -0.0969
vn 0.0722 0.9781 -0.1951
vn 0.8791 0.4667 -0.0969
vn 0.0649 0.9778 -0.1993
vn -0.0649 0.9778 -0.1993
vn 0.8748 0.4331 -0.2172
vn -0.8748 0.4331 -0.2172
vn 0.9058 0.3142 -0.2844
vn -0.9058 0.3142 -0.2844
vn -0.9662 -0.2010 -0.1613
vn 0.9662 -0.2010 -0.1613
vn -0.8057 -0.5906 0.0457
vn 0.8057 -0.5906 0.0457
vn 0.8418 -0.5396 0.0116
vn -0.8418 -0.5396 0.0116
vn -0.8259 -0.4302 0.3646
vn 0.8259 -0.4302 0.3646
vn 0.2943 -0.9283 0.2274
vn -0.2943 -0.9283 0.2274
vn -0.1918 -0.6532 0.7325
vn 0.1918 -0.6532 0.7325
vn -0.0263 -0.9994 0.0214
vn 0.0263 -0.9994 0.0214
vn 0.1203 0.8454 -0.5204
vn -0.1203 0.8454 -0.5204
vn 0.2412 0.8064 -0.5400
vn -0.2412 0.8064 -0.5400
vn -0.2197 0.8694 -0.4425
vn 0.2197 0.8694 -0.4425
vn 0.0000 0.8321 0.5547
vn 0.0000 -0.9625 0.2713
vn 0.0000 0.9961 0.0888
vn 0.0000 -0.7885 -0.6150
vn 0.0000 -0.9524 -0.3048
vn 0.0000 -0.8434 0.5373
vn 0.0000 -0.9847 -0.1744
vn 0.0000 0.9799 -0.1997
vn 0.0000 0.8897 -0.4565
vn 0.0000 -0.9991 0.0427
vn 0.0000 0.7696 -0.6385

f 9//1 11//1 6//1
f 12//2 11//2 9//2
f 31//3 28//3 33//3
f 33//4 34//4 31//4
f 11//5 5//5 6//5
f 33//6 28//6 27//6
f 44//7 15//7 8//7
f 37//8 43//8 30//8
f 43//9 29//9 30//9
f 8//10 7//10 44//10
f 37//11 15//11 44//11
f 43//11 37//11 44//11
f 10//12 9//12 16//12
f 22//13 31//13 32//13
f 39//14 22//14 32//14
f 18//15 10//15 16//15
f 18//16 16//16 19//16
f 39//17 40//17 22//17
f 18//18 21//18 10//18
f 39//19 32//19 42//19
f 40//20 39//20 41//20
f 19//21 20//21 18//21
f 32//22 31//22 34//22
f 34//22 42//22 32//22
f 12//23 9//23 10//23
f 12//23 10//23 21//23
f 39//24 42//24 41//24
f 18//25 20//25 21//25
f 27//26 28//26 25//26
f 5//27 4//27 6//27
f 43//28 25//28 29//28
f 29//29 25//29 28//29
f 44//30 7//30 4//30
f 7//31 6//31 4//31
f 44//32 4//32 48//32
f 25//33 43//33 46//33
f 3//34 4//34 5//34
f 27//35 25//35 26//35
f 2//36 3//36 5//36
f 27//37 26//37 24//37
f 24//38 23//38 27//38
f 2//39 5//39 1//39
f 34//40 33//40 35//40
f 12//41 13//41 11//41
f 14//42 13//42 12//42
f 35//43 36//43 34//43
f 36//44 42//44 34//44
f 14//45 12//45 21//45
f 20//46 17//46 21//46
f 42//47 38//47 41//47
f 17//48 14//48 21//48
f 38//49 42//49 36//49
f 14//50 17//50 13//50
f 36//51 35//51 38//51
f 3//52 48//52 4//52
f 25//53 46//53 26//53
f 2//54 47//54 3//54
f 24//55 26//55 45//55
f 46//56 45//56 26//56
f 47//57 48//57 3//57
f 40//58 20//58 19//58
f 41//58 20//58 40//58
f 20//59 41//59 17//59
f 41//59 38//59 17//59
f 40//60 19//60 22//60
f 19//60 16//60 22//60
f 35//61 33//61 11//61
f 35//61 11//61 13//61
f 33//62 5//62 11//62
f 33//62 27//62 5//62
f 5//63 27//63 1//63
f 23//63 1//63 27//63
f 24//64 2//64 23//64
f 2//64 1//64 23//64
f 43//65 44//65 46//65
f 48//65 46//65 44//65
f 46//66 48//66 45//66
f 45//66 48//66 47//66
f 17//67 38//67 13//67
f 35//67 13//67 38//67
f 47//68 24//68 45//68
f 24//68 47//68 2//68

l 3 1
l 5 38
l 2 45
l 7 15
l 14 16
l 4 43
l 19 21
l 3 24
l 17 27
l 6 28
l 6 33
l 5 44
l 29 37
l 28 43
l 6 44
l 13 33
l 16 40
l 1 24
l 13 36
l 28 48
l 20 38
l 14 35
l 22 38
l 11 27
l 11 28
l 6 27
l 3 27
l 30 32
l 6 46
l 15 16
l 27 43
l 27 44
l 5 26
l 8 10
l 7 35
l 5 17
l 1 26
l 1 45
l 5 23
l 23 47
l 5 25
l 4 27
l 3 23
l 13 29
l 30 31
l 36 22
l 1 48
l 37 22
l 27 38
l 23 46
l 40 42
l 35 43
l 13 44
l 28 46
l 6 48
l 5 43
l 25 44
l 8 9
l 42 43
l 15 43
l 19 41
l 5 28
l 16 17
l 26 23
l 21 44
l 2 26
l 21 42
l 4 47
l 25 45
